<svg xmlns="http://www.w3.org/2000/svg" xmlns:xlink="http://www.w3.org/1999/xlink"><defs><clipPath id="clip0_248_2456"><rect width="15" height="14" fill="white"/></clipPath><clipPath id="clip0_3639_458"><rect width="12" height="12" fill="white"/></clipPath><clipPath id="clip0_3603_132"><rect width="205" height="62" fill="currentColor"/></clipPath></defs><symbol id="arrow-left" viewBox="0 0 14 8"><g fill="none"><path d="M0.646446 4.35355C0.451184 4.15829 0.451184 3.84171 0.646446 3.64645L3.82843 0.464466C4.02369 0.269204 4.34027 0.269204 4.53553 0.464466C4.7308 0.659728 4.7308 0.976311 4.53553 1.17157L1.70711 4L4.53553 6.82843C4.7308 7.02369 4.7308 7.34027 4.53553 7.53553C4.34027 7.7308 4.02369 7.7308 3.82843 7.53553L0.646446 4.35355ZM14 4.5H1V3.5H14V4.5Z" fill="currentColor"/></g></symbol><symbol id="arrow-right" viewBox="0 0 14 8"><g fill="none"><path d="M13.3536 4.35355C13.5488 4.15829 13.5488 3.84171 13.3536 3.64645L10.1716 0.464466C9.97631 0.269204 9.65973 0.269204 9.46447 0.464466C9.2692 0.659728 9.2692 0.976311 9.46447 1.17157L12.2929 4L9.46447 6.82843C9.2692 7.02369 9.2692 7.34027 9.46447 7.53553C9.65973 7.7308 9.97631 7.7308 10.1716 7.53553L13.3536 4.35355ZM0 4.5H13V3.5H0V4.5Z" fill="currentColor"/></g></symbol><symbol id="burger-menu" viewBox="0 0 26 26"><g fill="none"><path d="M0 3.54541H26V5.71534H0V3.54541Z" fill="currentColor"/><path d="M0 20.2846H26V22.4545H0V20.2846Z" fill="currentColor"/><path d="M0 11.915H16.64V14.0849H0V11.915Z" fill="currentColor"/></g></symbol><symbol id="close-menu" viewBox="0 0 22 22"><g fill="none"><path d="M2 2L11 11M20 20L11 11M11 11L20 2L2 20" stroke="currentColor" stroke-width="2"/></g></symbol><symbol id="empty-star" viewBox="0 0 15 14"><g fill="none"><g clip-path="url(#clip0_248_2456)"><path d="M7.74525 10.6055L7.5 10.4674L7.25475 10.6055L3.63071 12.6453L4.57642 8.85073L4.6535 8.54147L4.40569 8.34105L1.28779 5.81937L5.43318 5.48739L5.72674 5.46388L5.84852 5.19573L7.5 1.55927L9.15152 5.19574L9.27329 5.46388L9.56685 5.48739L13.7122 5.81937L10.5943 8.34105L10.3465 8.54147L10.4236 8.85073L11.3693 12.6453L7.74525 10.6055Z" stroke="white"/></g></g></symbol><symbol id="full-star" viewBox="0 0 15 14"><g fill="none"><path d="M7.5 11.0412L12.135 13.6501L10.9087 8.72981L15 5.4209L9.60677 4.98898L7.5 0.350098L5.39327 4.98898L0 5.4209L4.09126 8.72981L2.865 13.6501L7.5 11.0412Z" fill="white"/></g></symbol><symbol id="level" viewBox="0 0 12 12"><g fill="none"><g clip-path="url(#clip0_3639_458)"><path d="M10.909 11.4545H8.94536V0.54541H10.909V11.4545Z" stroke="white" stroke-miterlimit="16" stroke-linecap="round"/><path d="M6.98173 11.4545V3.52062H5.01809L5.0181 11.4545H6.98173Z" stroke="white" stroke-miterlimit="16" stroke-linecap="round"/><path d="M3.05446 11.4545V6.49582H1.09082V11.4545H3.05446Z" stroke="white" stroke-miterlimit="16" stroke-linecap="round"/></g></g></symbol><symbol id="like-audio" viewBox="0 0 15 13"><g fill="none"><path d="M14.3232 2.70821C14.1007 2.19296 13.7799 1.72605 13.3786 1.33361C12.9771 0.939992 12.5036 0.627194 11.9841 0.412219C11.4453 0.188418 10.8675 0.0738642 10.2841 0.075207C9.46562 0.075207 8.66709 0.299328 7.97314 0.722668C7.80713 0.823937 7.64941 0.935168 7.5 1.05636C7.35059 0.935168 7.19287 0.823937 7.02686 0.722668C6.33291 0.299328 5.53437 0.075207 4.71592 0.075207C4.12656 0.075207 3.55547 0.188098 3.01592 0.412219C2.49463 0.628039 2.0248 0.938488 1.62139 1.33361C1.21962 1.72561 0.898684 2.19263 0.676758 2.70821C0.445996 3.24445 0.328125 3.81388 0.328125 4.39991C0.328125 4.95275 0.441016 5.52882 0.665137 6.11486C0.852734 6.6046 1.12168 7.11261 1.46533 7.6256C2.00986 8.43741 2.75859 9.28409 3.68828 10.1424C5.22891 11.5651 6.75459 12.548 6.81934 12.5878L7.21279 12.8401C7.38711 12.9514 7.61123 12.9514 7.78555 12.8401L8.179 12.5878C8.24375 12.5463 9.76777 11.5651 11.3101 10.1424C12.2397 9.28409 12.9885 8.43741 13.533 7.6256C13.8767 7.11261 14.1473 6.6046 14.3332 6.11486C14.5573 5.52882 14.6702 4.95275 14.6702 4.39991C14.6719 3.81388 14.554 3.24445 14.3232 2.70821ZM7.5 11.527C7.5 11.527 1.58984 7.74015 1.58984 4.39991C1.58984 2.70821 2.98936 1.33693 4.71592 1.33693C5.92949 1.33693 6.98203 2.01427 7.5 3.00372C8.01797 2.01427 9.07051 1.33693 10.2841 1.33693C12.0106 1.33693 13.4102 2.70821 13.4102 4.39991C13.4102 7.74015 7.5 11.527 7.5 11.527Z" fill="currentColor"/></g></symbol><symbol id="logo" viewBox="0 0 205 62"><g fill="none"><g clip-path="url(#clip0_3603_132)"><path d="M22.7109 40.218L28.1507 34.4824L34.3385 40.218H44.9461L28.0827 23.6255L11.3553 40.218H22.7109Z" fill="currentColor"/><path d="M38.2827 13.5881L30.259 21.7819L35.5628 27.2445L38.2827 24.5132L53.1742 39.3987C49.7743 48.4802 41.0706 54.967 30.8029 54.967C17.6114 54.967 6.93576 44.2467 6.93576 31C7.00376 17.7533 17.6794 7.03304 30.8709 7.03304C42.5665 7.03304 52.3582 15.5683 54.3301 26.6982L61.5379 34.3458C61.6739 33.2533 61.7419 32.0925 61.7419 31C61.7419 22.7379 58.546 14.9537 52.6982 9.0815C46.8504 3.20925 39.0987 0 30.8709 0C22.5752 0 14.8915 3.20925 9.04369 9.0815C3.19589 14.9537 0 22.6696 0 31C0 39.3304 3.19589 47.0463 9.04369 52.9185C14.8915 58.7907 22.6432 62 30.8709 62C39.0987 62 46.8504 58.7907 52.6982 52.9185C56.3021 49.2996 58.886 44.9978 60.3139 40.2863C60.5859 39.467 60.7899 38.5793 60.9939 37.7599L54.7381 31.1366L38.2827 13.5881Z" fill="currentColor"/><path d="M87.2138 19.9204H91.7535L89.2773 32.4222H96.9351L96.2015 36.0369H84.0039L87.2138 19.9204Z" fill="currentColor"/><path d="M101.208 19.9204H105.747L102.538 36.0369H97.9979L101.208 19.9204Z" fill="currentColor"/><path d="M112.806 23.443L112.095 26.9887H119.18L118.469 30.5113H111.408L110.307 36.0369H105.767L108.977 19.9204H121.542L120.831 23.443H112.806Z" fill="currentColor"/><path d="M127.448 23.443L126.921 26.1598H134.051L133.386 29.5673H126.233L125.659 32.5143H134.074L133.34 36.0369H120.478L123.688 19.9204H136.252L135.541 23.443H127.448Z" fill="currentColor"/><path d="M141.775 23.5351H136.845L137.579 19.9204H151.955L151.221 23.5351H146.315L143.815 36.0369H139.276L141.775 23.5351Z" fill="currentColor"/><path d="M158.879 36.3593C157.259 36.3593 155.845 36.06 154.637 35.4613C153.445 34.8627 152.52 34.0262 151.863 32.9518C151.221 31.8773 150.9 30.6494 150.9 29.268C150.9 27.4261 151.32 25.7684 152.161 24.2949C153.017 22.8214 154.202 21.6702 155.715 20.8414C157.243 20.0125 158.978 19.5981 160.919 19.5981C162.54 19.5981 163.946 19.8974 165.138 20.496C166.346 21.0946 167.27 21.9311 167.912 23.0056C168.57 24.08 168.898 25.3079 168.898 26.6893C168.898 28.5312 168.47 30.1889 167.614 31.6624C166.774 33.136 165.589 34.2871 164.061 35.116C162.547 35.9448 160.82 36.3593 158.879 36.3593ZM159.269 32.5834C160.278 32.5834 161.164 32.3301 161.928 31.8236C162.693 31.3171 163.281 30.6417 163.694 29.7975C164.106 28.938 164.313 27.994 164.313 26.9656C164.313 25.8758 163.977 25.0086 163.304 24.364C162.647 23.704 161.722 23.374 160.53 23.374C159.521 23.374 158.634 23.6272 157.87 24.1337C157.106 24.6402 156.517 25.3233 156.105 26.1828C155.692 27.027 155.486 27.9633 155.486 28.9917C155.486 30.0815 155.814 30.9564 156.471 31.6164C157.144 32.2611 158.076 32.5834 159.269 32.5834Z" fill="currentColor"/><path d="M177.421 36.3593C176.03 36.3593 174.83 36.129 173.821 35.6686C172.812 35.1927 172.04 34.5174 171.505 33.6425C170.97 32.7676 170.703 31.7392 170.703 30.5573C170.703 30.0661 170.764 29.4982 170.886 28.8536L172.675 19.9204H177.214L175.449 28.7845C175.357 29.245 175.311 29.6671 175.311 30.0508C175.311 31.7392 176.198 32.5834 177.971 32.5834C178.934 32.5834 179.69 32.2918 180.241 31.7085C180.806 31.1099 181.227 30.1352 181.502 28.7845L183.267 19.9204H187.738L185.927 29.0608C184.949 33.9264 182.113 36.3593 177.421 36.3593Z" fill="currentColor"/><path d="M204.157 25.0547C204.157 26.5282 203.768 27.8022 202.988 28.8766C202.209 29.9357 201.116 30.7108 199.709 31.202L202.438 36.0369H197.692L195.307 31.7545H193.015L192.166 36.0369H187.627L190.836 19.9204H197.692C199.74 19.9204 201.33 20.3732 202.461 21.2788C203.592 22.1844 204.157 23.443 204.157 25.0547ZM199.572 25.4921C199.572 24.8321 199.35 24.3409 198.907 24.0186C198.464 23.6809 197.845 23.5121 197.05 23.5121H194.665L193.702 28.2319H196.408C197.417 28.2319 198.196 27.994 198.746 27.5182C199.297 27.0424 199.572 26.367 199.572 25.4921Z" fill="currentColor"/><path d="M87.0264 51.2331C86.4734 51.2331 85.971 51.1103 85.5191 50.8647C85.0725 50.6138 84.7216 50.2721 84.4664 49.8396C84.2166 49.4072 84.0916 48.9214 84.0916 48.3821C84.0916 47.8429 84.2166 47.3571 84.4664 46.9247C84.7216 46.4922 85.0725 46.1532 85.5191 45.9076C85.971 45.6567 86.4734 45.5312 87.0264 45.5312C87.5793 45.5312 88.0764 45.654 88.5177 45.8996C88.9643 46.1452 89.3152 46.4869 89.5704 46.9247C89.8255 47.3571 89.9531 47.8429 89.9531 48.3821C89.9531 48.9214 89.8255 49.4099 89.5704 49.8477C89.3152 50.2801 88.9643 50.6191 88.5177 50.8647C88.0764 51.1103 87.5793 51.2331 87.0264 51.2331ZM87.0264 50.7045C87.4676 50.7045 87.8664 50.6058 88.2226 50.4082C88.5788 50.2053 88.8579 49.9277 89.06 49.5754C89.262 49.2177 89.363 48.8199 89.363 48.3821C89.363 47.9444 89.262 47.5493 89.06 47.1969C88.8579 46.8392 88.5788 46.5616 88.2226 46.3641C87.8664 46.1612 87.4676 46.0598 87.0264 46.0598C86.5851 46.0598 86.1837 46.1612 85.8222 46.3641C85.466 46.5616 85.1842 46.8392 84.9768 47.1969C84.7748 47.5493 84.6738 47.9444 84.6738 48.3821C84.6738 48.8199 84.7748 49.2177 84.9768 49.5754C85.1842 49.9277 85.466 50.2053 85.8222 50.4082C86.1837 50.6058 86.5851 50.7045 87.0264 50.7045Z" fill="currentColor"/><path d="M93.387 46.9407C93.7804 46.9407 94.1367 47.0314 94.4556 47.213C94.7746 47.3891 95.0245 47.6401 95.2053 47.9657C95.386 48.2914 95.4764 48.6624 95.4764 49.0789C95.4764 49.5006 95.386 49.8743 95.2053 50.2C95.0245 50.5257 94.7746 50.7793 94.4556 50.9608C94.142 51.137 93.7858 51.2251 93.387 51.2251C93.0467 51.2251 92.7384 51.1557 92.4619 51.0168C92.1908 50.8727 91.9675 50.6645 91.792 50.3922V52.7386H91.2258V46.9727H91.7681V47.8056C91.9382 47.5279 92.1615 47.3144 92.438 47.1649C92.7198 47.0154 93.0361 46.9407 93.387 46.9407ZM93.3471 50.7205C93.6395 50.7205 93.9054 50.6538 94.1446 50.5203C94.3839 50.3815 94.5699 50.1867 94.7029 49.9357C94.8411 49.6848 94.9102 49.3992 94.9102 49.0789C94.9102 48.7585 94.8411 48.4756 94.7029 48.23C94.5699 47.9791 94.3839 47.7842 94.1446 47.6454C93.9054 47.5066 93.6395 47.4372 93.3471 47.4372C93.0494 47.4372 92.7809 47.5066 92.5417 47.6454C92.3077 47.7842 92.1217 47.9791 91.9834 48.23C91.8505 48.4756 91.7841 48.7585 91.7841 49.0789C91.7841 49.3992 91.8505 49.6848 91.9834 49.9357C92.1217 50.1867 92.3077 50.3815 92.5417 50.5203C92.7809 50.6538 93.0494 50.7205 93.3471 50.7205Z" fill="currentColor"/><path d="M99.6596 47.4772H97.2592V51.185H96.693V46.9727H99.6596V47.4772Z" fill="currentColor"/><path d="M101.921 46.9407C102.469 46.9407 102.889 47.0795 103.181 47.3571C103.474 47.6294 103.62 48.0351 103.62 48.5743V51.185H103.078V50.5283C102.95 50.7472 102.761 50.9181 102.512 51.0409C102.267 51.1637 101.975 51.2251 101.634 51.2251C101.166 51.2251 100.794 51.1129 100.518 50.8887C100.241 50.6645 100.103 50.3682 100.103 49.9998C100.103 49.6421 100.231 49.3538 100.486 49.1349C100.746 48.916 101.158 48.8066 101.722 48.8066H103.054V48.5503C103.054 48.1873 102.953 47.9123 102.751 47.7255C102.549 47.5333 102.254 47.4372 101.866 47.4372C101.6 47.4372 101.345 47.4826 101.1 47.5733C100.855 47.6587 100.645 47.7789 100.47 47.9337L100.215 47.5093C100.427 47.3277 100.683 47.1889 100.98 47.0928C101.278 46.9914 101.592 46.9407 101.921 46.9407ZM101.722 50.7766C102.041 50.7766 102.315 50.7045 102.543 50.5604C102.772 50.4109 102.942 50.1973 103.054 49.9197V49.231H101.738C101.02 49.231 100.661 49.4819 100.661 49.9838C100.661 50.2294 100.754 50.4242 100.94 50.5684C101.127 50.7072 101.387 50.7766 101.722 50.7766Z" fill="currentColor"/><path d="M105.127 46.9727H105.694V48.8386H108.333V46.9727H108.899V51.185H108.333V49.3271H105.694V51.185H105.127V46.9727Z" fill="currentColor"/><path d="M110.509 46.9727H111.075V50.3201L113.874 46.9727H114.377V51.185H113.81V47.8376L111.019 51.185H110.509V46.9727Z" fill="currentColor"/><path d="M117.955 48.9908C118.253 49.0602 118.482 49.1803 118.641 49.3511C118.806 49.522 118.888 49.7302 118.888 49.9758C118.888 50.2214 118.803 50.4403 118.633 50.6325C118.468 50.8246 118.242 50.9741 117.955 51.0809C117.668 51.1824 117.352 51.2331 117.006 51.2331C116.703 51.2331 116.405 51.1904 116.113 51.1049C115.821 51.0142 115.565 50.8834 115.347 50.7125L115.539 50.2881C115.73 50.4322 115.954 50.5444 116.209 50.6244C116.464 50.7045 116.722 50.7446 116.982 50.7446C117.37 50.7446 117.687 50.6725 117.931 50.5283C118.181 50.3789 118.306 50.1787 118.306 49.9277C118.306 49.7035 118.205 49.53 118.003 49.4072C117.801 49.2791 117.525 49.215 117.174 49.215H116.456V48.7986H117.142C117.455 48.7986 117.708 48.7398 117.899 48.6224C118.091 48.4996 118.186 48.3368 118.186 48.1339C118.186 47.9097 118.077 47.7335 117.86 47.6054C117.647 47.4772 117.368 47.4132 117.022 47.4132C116.57 47.4132 116.124 47.5279 115.682 47.7575L115.523 47.3171C116.023 47.0555 116.541 46.9247 117.078 46.9247C117.397 46.9247 117.684 46.9727 117.939 47.0688C118.2 47.1596 118.402 47.2904 118.545 47.4612C118.694 47.632 118.769 47.8296 118.769 48.0538C118.769 48.2674 118.694 48.4569 118.545 48.6224C118.402 48.7879 118.205 48.9107 117.955 48.9908Z" fill="currentColor"/><path d="M121.617 46.9407C122.165 46.9407 122.585 47.0795 122.877 47.3571C123.17 47.6294 123.316 48.0351 123.316 48.5743V51.185H122.773V50.5283C122.646 50.7472 122.457 50.9181 122.207 51.0409C121.963 51.1637 121.67 51.2251 121.33 51.2251C120.862 51.2251 120.49 51.1129 120.214 50.8887C119.937 50.6645 119.799 50.3682 119.799 49.9998C119.799 49.6421 119.926 49.3538 120.182 49.1349C120.442 48.916 120.854 48.8066 121.418 48.8066H122.75V48.5503C122.75 48.1873 122.649 47.9123 122.446 47.7255C122.244 47.5333 121.949 47.4372 121.561 47.4372C121.295 47.4372 121.04 47.4826 120.796 47.5733C120.551 47.6587 120.341 47.7789 120.166 47.9337L119.91 47.5093C120.123 47.3277 120.378 47.1889 120.676 47.0928C120.974 46.9914 121.287 46.9407 121.617 46.9407ZM121.418 50.7766C121.737 50.7766 122.011 50.7045 122.239 50.5604C122.468 50.4109 122.638 50.1973 122.75 49.9197V49.231H121.434C120.716 49.231 120.357 49.4819 120.357 49.9838C120.357 50.2294 120.45 50.4242 120.636 50.5684C120.822 50.7072 121.083 50.7766 121.418 50.7766Z" fill="currentColor"/><path d="M129.193 50.6885V52.2421H128.659V51.185H124.823V46.9727H125.389V50.6885H127.949V46.9727H128.515V50.6885H129.193Z" fill="currentColor"/><path d="M130.275 46.9727H130.841V50.3201L133.64 46.9727H134.142V51.185H133.576V47.8376L130.785 51.185H130.275V46.9727Z" fill="currentColor"/><path d="M138.987 46.9727V51.185H138.469V49.7916H136.993L136.02 51.185H135.406L136.451 49.7115C136.127 49.6208 135.877 49.4659 135.701 49.247C135.526 49.0281 135.438 48.7505 135.438 48.4142C135.438 47.9444 135.598 47.5867 135.917 47.3411C136.236 47.0955 136.672 46.9727 137.225 46.9727H138.987ZM136.012 48.4302C136.012 49.0548 136.408 49.3672 137.201 49.3672H138.469V47.4772H137.24C136.422 47.4772 136.012 47.7949 136.012 48.4302Z" fill="currentColor"/><path d="M146.453 46.9727V51.185H145.887V47.4772H143.255V51.185H142.689V46.9727H146.453Z" fill="currentColor"/><path d="M149.793 51.2251C149.389 51.2251 149.025 51.1343 148.7 50.9528C148.376 50.7659 148.121 50.5097 147.935 50.184C147.749 49.8583 147.656 49.4899 147.656 49.0789C147.656 48.6678 147.749 48.2994 147.935 47.9737C148.121 47.6481 148.376 47.3945 148.7 47.213C149.025 47.0314 149.389 46.9407 149.793 46.9407C150.197 46.9407 150.561 47.0314 150.885 47.213C151.21 47.3945 151.462 47.6481 151.643 47.9737C151.829 48.2994 151.922 48.6678 151.922 49.0789C151.922 49.4899 151.829 49.8583 151.643 50.184C151.462 50.5097 151.21 50.7659 150.885 50.9528C150.561 51.1343 150.197 51.2251 149.793 51.2251ZM149.793 50.7205C150.091 50.7205 150.356 50.6538 150.59 50.5203C150.83 50.3815 151.016 50.1867 151.149 49.9357C151.282 49.6848 151.348 49.3992 151.348 49.0789C151.348 48.7585 151.282 48.4729 151.149 48.222C151.016 47.9711 150.83 47.7789 150.59 47.6454C150.356 47.5066 150.091 47.4372 149.793 47.4372C149.495 47.4372 149.227 47.5066 148.987 47.6454C148.753 47.7789 148.567 47.9711 148.429 48.222C148.296 48.4729 148.23 48.7585 148.23 49.0789C148.23 49.3992 148.296 49.6848 148.429 49.9357C148.567 50.1867 148.753 50.3815 148.987 50.5203C149.227 50.6538 149.495 50.7205 149.793 50.7205Z" fill="currentColor"/><path d="M155.608 51.185L154.276 49.4232L152.936 51.185H152.298L153.957 49.0228L152.378 46.9727H153.016L154.276 48.6224L155.536 46.9727H156.158L154.579 49.0228L156.254 51.185H155.608Z" fill="currentColor"/><path d="M158.765 51.2251C158.361 51.2251 157.996 51.1343 157.672 50.9528C157.348 50.7659 157.093 50.5097 156.906 50.184C156.72 49.8583 156.627 49.4899 156.627 49.0789C156.627 48.6678 156.72 48.2994 156.906 47.9737C157.093 47.6481 157.348 47.3945 157.672 47.213C157.996 47.0314 158.361 46.9407 158.765 46.9407C159.169 46.9407 159.533 47.0314 159.857 47.213C160.181 47.3945 160.434 47.6481 160.615 47.9737C160.801 48.2994 160.894 48.6678 160.894 49.0789C160.894 49.4899 160.801 49.8583 160.615 50.184C160.434 50.5097 160.181 50.7659 159.857 50.9528C159.533 51.1343 159.169 51.2251 158.765 51.2251ZM158.765 50.7205C159.062 50.7205 159.328 50.6538 159.562 50.5203C159.801 50.3815 159.987 50.1867 160.12 49.9357C160.253 49.6848 160.32 49.3992 160.32 49.0789C160.32 48.7585 160.253 48.4729 160.12 48.222C159.987 47.9711 159.801 47.7789 159.562 47.6454C159.328 47.5066 159.062 47.4372 158.765 47.4372C158.467 47.4372 158.198 47.5066 157.959 47.6454C157.725 47.7789 157.539 47.9711 157.401 48.222C157.268 48.4729 157.202 48.7585 157.202 49.0789C157.202 49.3992 157.268 49.6848 157.401 49.9357C157.539 50.1867 157.725 50.3815 157.959 50.5203C158.198 50.6538 158.467 50.7205 158.765 50.7205Z" fill="currentColor"/><path d="M166.172 50.6885V52.2021H165.637V51.185H161.881V52.2021H161.347V50.6885H161.586C161.868 50.6725 162.059 50.4643 162.16 50.0639C162.261 49.6635 162.331 49.1029 162.368 48.3821L162.424 46.9727H165.518V50.6885H166.172ZM162.886 48.4142C162.86 49.0121 162.809 49.506 162.735 49.8957C162.66 50.2801 162.527 50.5444 162.336 50.6885H164.952V47.4772H162.934L162.886 48.4142Z" fill="currentColor"/><path d="M169.006 51.2251C168.602 51.2251 168.238 51.1343 167.913 50.9528C167.589 50.7659 167.334 50.5097 167.148 50.184C166.962 49.8583 166.868 49.4899 166.868 49.0789C166.868 48.6678 166.962 48.2994 167.148 47.9737C167.334 47.6481 167.589 47.3945 167.913 47.213C168.238 47.0314 168.602 46.9407 169.006 46.9407C169.41 46.9407 169.774 47.0314 170.098 47.213C170.423 47.3945 170.675 47.6481 170.856 47.9737C171.042 48.2994 171.135 48.6678 171.135 49.0789C171.135 49.4899 171.042 49.8583 170.856 50.184C170.675 50.5097 170.423 50.7659 170.098 50.9528C169.774 51.1343 169.41 51.2251 169.006 51.2251ZM169.006 50.7205C169.303 50.7205 169.569 50.6538 169.803 50.5203C170.042 50.3815 170.229 50.1867 170.361 49.9357C170.494 49.6848 170.561 49.3992 170.561 49.0789C170.561 48.7585 170.494 48.4729 170.361 48.222C170.229 47.9711 170.042 47.7789 169.803 47.6454C169.569 47.5066 169.303 47.4372 169.006 47.4372C168.708 47.4372 168.44 47.5066 168.2 47.6454C167.966 47.7789 167.78 47.9711 167.642 48.222C167.509 48.4729 167.443 48.7585 167.443 49.0789C167.443 49.3992 167.509 49.6848 167.642 49.9357C167.78 50.1867 167.966 50.3815 168.2 50.5203C168.44 50.6538 168.708 50.7205 169.006 50.7205Z" fill="currentColor"/><path d="M175.017 49.0068C175.586 49.1403 175.87 49.4846 175.87 50.0398C175.87 50.4082 175.734 50.6912 175.463 50.8887C175.192 51.0863 174.788 51.185 174.251 51.185H172.345V46.9727H174.195C174.674 46.9727 175.049 47.0661 175.32 47.253C175.591 47.4398 175.727 47.7068 175.727 48.0538C175.727 48.2834 175.663 48.4809 175.535 48.6464C175.413 48.8066 175.24 48.9267 175.017 49.0068ZM172.895 48.8466H174.155C174.48 48.8466 174.727 48.7852 174.897 48.6624C175.073 48.5396 175.16 48.3608 175.16 48.1259C175.16 47.891 175.073 47.7148 174.897 47.5973C174.727 47.4799 174.48 47.4212 174.155 47.4212H172.895V48.8466ZM174.227 50.7366C174.589 50.7366 174.86 50.6778 175.041 50.5604C175.221 50.4429 175.312 50.2587 175.312 50.0078C175.312 49.7569 175.229 49.5727 175.065 49.4552C174.9 49.3325 174.639 49.2711 174.283 49.2711H172.895V50.7366H174.227Z" fill="currentColor"/><path d="M181.956 49.0068C182.525 49.1403 182.809 49.4846 182.809 50.0398C182.809 50.4082 182.674 50.6912 182.402 50.8887C182.131 51.0863 181.727 51.185 181.19 51.185H179.284V46.9727H181.134C181.613 46.9727 181.988 47.0661 182.259 47.253C182.53 47.4398 182.666 47.7068 182.666 48.0538C182.666 48.2834 182.602 48.4809 182.474 48.6464C182.352 48.8066 182.179 48.9267 181.956 49.0068ZM179.835 48.8466H181.095C181.419 48.8466 181.666 48.7852 181.836 48.6624C182.012 48.5396 182.099 48.3608 182.099 48.1259C182.099 47.891 182.012 47.7148 181.836 47.5973C181.666 47.4799 181.419 47.4212 181.095 47.4212H179.835V48.8466ZM181.166 50.7366C181.528 50.7366 181.799 50.6778 181.98 50.5604C182.161 50.4429 182.251 50.2587 182.251 50.0078C182.251 49.7569 182.168 49.5727 182.004 49.4552C181.839 49.3325 181.578 49.2711 181.222 49.2711H179.835V50.7366H181.166Z" fill="currentColor"/><path d="M189.19 47.4772H186.79V51.185H186.223V46.9727H189.19V47.4772Z" fill="currentColor"/><path d="M191.544 51.2251C191.14 51.2251 190.776 51.1343 190.452 50.9528C190.127 50.7659 189.872 50.5097 189.686 50.184C189.5 49.8583 189.407 49.4899 189.407 49.0789C189.407 48.6678 189.5 48.2994 189.686 47.9737C189.872 47.6481 190.127 47.3945 190.452 47.213C190.776 47.0314 191.14 46.9407 191.544 46.9407C191.948 46.9407 192.312 47.0314 192.637 47.213C192.961 47.3945 193.214 47.6481 193.394 47.9737C193.58 48.2994 193.673 48.6678 193.673 49.0789C193.673 49.4899 193.58 49.8583 193.394 50.184C193.214 50.5097 192.961 50.7659 192.637 50.9528C192.312 51.1343 191.948 51.2251 191.544 51.2251ZM191.544 50.7205C191.842 50.7205 192.108 50.6538 192.342 50.5203C192.581 50.3815 192.767 50.1867 192.9 49.9357C193.033 49.6848 193.099 49.3992 193.099 49.0789C193.099 48.7585 193.033 48.4729 192.9 48.222C192.767 47.9711 192.581 47.7789 192.342 47.6454C192.108 47.5066 191.842 47.4372 191.544 47.4372C191.246 47.4372 190.978 47.5066 190.739 47.6454C190.505 47.7789 190.319 47.9711 190.18 48.222C190.047 48.4729 189.981 48.7585 189.981 49.0789C189.981 49.3992 190.047 49.6848 190.18 49.9357C190.319 50.1867 190.505 50.3815 190.739 50.5203C190.978 50.6538 191.246 50.7205 191.544 50.7205Z" fill="currentColor"/><path d="M197.045 46.9407C197.438 46.9407 197.794 47.0314 198.113 47.213C198.432 47.3891 198.682 47.6401 198.863 47.9657C199.044 48.2914 199.134 48.6624 199.134 49.0789C199.134 49.5006 199.044 49.8743 198.863 50.2C198.682 50.5257 198.432 50.7793 198.113 50.9608C197.8 51.137 197.443 51.2251 197.045 51.2251C196.704 51.2251 196.396 51.1557 196.12 51.0168C195.848 50.8727 195.625 50.6645 195.45 50.3922V52.7386H194.884V46.9727H195.426V47.8056C195.596 47.5279 195.819 47.3144 196.096 47.1649C196.377 47.0154 196.694 46.9407 197.045 46.9407ZM197.005 50.7205C197.297 50.7205 197.563 50.6538 197.802 50.5203C198.042 50.3815 198.228 50.1867 198.361 49.9357C198.499 49.6848 198.568 49.3992 198.568 49.0789C198.568 48.7585 198.499 48.4756 198.361 48.23C198.228 47.9791 198.042 47.7842 197.802 47.6454C197.563 47.5066 197.297 47.4372 197.005 47.4372C196.707 47.4372 196.439 47.5066 196.199 47.6454C195.965 47.7842 195.779 47.9791 195.641 48.23C195.508 48.4756 195.442 48.7585 195.442 49.0789C195.442 49.3992 195.508 49.6848 195.641 49.9357C195.779 50.1867 195.965 50.3815 196.199 50.5203C196.439 50.6538 196.707 50.7205 197.005 50.7205Z" fill="currentColor"/><path d="M202.113 48.4622C202.639 48.4676 203.041 48.585 203.317 48.8146C203.594 49.0442 203.732 49.3752 203.732 49.8076C203.732 50.2561 203.583 50.6004 203.285 50.8407C202.988 51.0809 202.562 51.1984 202.009 51.193L200.351 51.185V46.9727H200.917V48.4462L202.113 48.4622ZM204.434 46.9727H205V51.185H204.434V46.9727ZM201.978 50.7606C202.366 50.7659 202.658 50.6885 202.855 50.5283C203.057 50.3628 203.158 50.1226 203.158 49.8076C203.158 49.498 203.059 49.2684 202.863 49.1189C202.666 48.9694 202.371 48.892 201.978 48.8867L200.917 48.8706V50.7446L201.978 50.7606Z" fill="currentColor"/></g></g></symbol><symbol id="moon" viewBox="0 0 12 12"><g fill="none"><path d="M11.1966 6.75379C11.0851 6.72581 10.9736 6.75379 10.876 6.82374C10.5135 7.13153 10.0953 7.38335 9.6352 7.55123C9.20301 7.71912 8.72901 7.80306 8.22712 7.80306C7.09786 7.80306 6.0662 7.34138 5.32731 6.5999C4.58841 5.85842 4.12835 4.82314 4.12835 3.68994C4.12835 3.21427 4.212 2.75259 4.35141 2.33289C4.50477 1.8852 4.72783 1.47949 5.0206 1.12973C5.14607 0.975839 5.11819 0.751995 4.96483 0.626083C4.86724 0.556132 4.75571 0.528152 4.64418 0.556132C3.45916 0.877907 2.4275 1.59141 1.6886 2.54274C0.977593 3.48008 0.54541 4.64127 0.54541 5.91438C0.54541 7.43931 1.15883 8.82434 2.16261 9.83164C3.16639 10.8389 4.54659 11.4545 6.0662 11.4545C7.34881 11.4545 8.53383 11.0068 9.48184 10.2653C10.4438 9.50986 11.1409 8.43262 11.4336 7.20148C11.5033 6.99163 11.3918 6.79576 11.1966 6.75379ZM9.0636 9.67774C8.255 10.3213 7.22334 10.713 6.09408 10.713C4.76965 10.713 3.57069 10.1674 2.70633 9.30001C1.84196 8.43262 1.29825 7.22946 1.29825 5.90039C1.29825 4.79516 1.66072 3.78787 2.28808 2.97644C2.72027 2.41683 3.26398 1.95515 3.89134 1.63338C3.82164 1.78727 3.75193 1.94116 3.69617 2.10904C3.51493 2.61269 3.43128 3.14432 3.43128 3.70393C3.43128 5.033 3.97499 6.25015 4.83936 7.11754C5.70373 7.98493 6.91663 8.53055 8.24106 8.53055C8.8266 8.53055 9.38425 8.43262 9.90008 8.23675C10.0813 8.1668 10.2626 8.09685 10.4299 8.01291C10.0953 8.65646 9.6352 9.23006 9.0636 9.67774Z" fill="white"/></g></symbol><symbol id="next-audio" viewBox="0 0 19 18"><g fill="none"><path d="M1.4375 0.749998C1.55849 0.750027 1.67732 0.782046 1.78194 0.842812L14.8444 8.40531C14.9486 8.46575 15.0351 8.55249 15.0952 8.65686C15.1553 8.76123 15.187 8.87956 15.187 9C15.187 9.12044 15.1553 9.23877 15.0952 9.34314C15.0351 9.44751 14.9486 9.53425 14.8444 9.59469L1.78194 17.1572C1.67746 17.2177 1.5589 17.2496 1.43817 17.2497C1.31745 17.2498 1.19882 17.2181 1.09423 17.1579C0.98963 17.0976 0.902748 17.0108 0.842321 16.9063C0.781895 16.8018 0.750053 16.6832 0.75 16.5625L0.750001 1.4375C0.750001 1.25516 0.822433 1.08029 0.951364 0.951361C1.0803 0.82243 1.25516 0.749998 1.4375 0.749998ZM18.625 17.25L17.25 17.25L17.25 0.75L18.625 0.75L18.625 17.25Z" fill="currentColor"/></g></symbol><symbol id="pin" viewBox="0 0 9 12"><g fill="none"><path d="M4.49981 0C2.01874 0 0 1.98191 0 4.41796C0 5.05338 0.132472 5.66006 0.39354 6.2213C1.51862 8.63833 3.67571 11.1902 4.31017 11.9146C4.35771 11.9688 4.42701 12 4.49994 12C4.57287 12 4.64217 11.9688 4.6897 11.9146C5.32392 11.1903 7.48101 8.63857 8.60646 6.2213C8.86765 5.66006 9 5.05338 9 4.41796C8.99975 1.98191 6.98101 0 4.49981 0ZM4.49981 6.71267C3.21099 6.71267 2.16234 5.68315 2.16234 4.41784C2.16234 3.15241 3.21099 2.12289 4.49981 2.12289C5.78864 2.12289 6.83728 3.15241 6.83728 4.41784C6.83741 5.68315 5.78876 6.71267 4.49981 6.71267Z" fill="white"/></g></symbol><symbol id="play-audio" viewBox="0 0 47 47"><g fill="none"><path d="M47 23.5C47 29.7326 44.5241 35.7099 40.117 40.117C35.7099 44.5241 29.7326 47 23.5 47C17.2674 47 11.2901 44.5241 6.88299 40.117C2.47589 35.7099 0 29.7326 0 23.5C0 17.2674 2.47589 11.2901 6.88299 6.88299C11.2901 2.47589 17.2674 0 23.5 0C29.7326 0 35.7099 2.47589 40.117 6.88299C44.5241 11.2901 47 17.2674 47 23.5ZM19.9456 14.9607C19.726 14.8043 19.4676 14.7114 19.1987 14.6922C18.9298 14.6729 18.6607 14.728 18.4211 14.8515C18.1814 14.975 17.9804 15.162 17.84 15.3922C17.6995 15.6223 17.6252 15.8867 17.625 16.1562V30.8438C17.6252 31.1133 17.6995 31.3777 17.84 31.6078C17.9804 31.838 18.1814 32.025 18.4211 32.1485C18.6607 32.272 18.9298 32.3271 19.1987 32.3078C19.4676 32.2886 19.726 32.1957 19.9456 32.0393L30.2269 24.6956C30.4173 24.5597 30.5725 24.3803 30.6795 24.1724C30.7866 23.9644 30.8425 23.7339 30.8425 23.5C30.8425 23.2661 30.7866 23.0356 30.6795 22.8276C30.5725 22.6197 30.4173 22.4403 30.2269 22.3044L19.9456 14.9607Z" fill="currentColor"/></g></symbol><symbol id="play-video" viewBox="0 0 12 22"><g fill="none"><path d="M0.5 20.8634V1.13662L11.2601 11L0.5 20.8634Z" fill="currentColor"/></g></symbol><symbol id="prev-audio" viewBox="0 0 19 18"><g fill="none"><path d="M17.5625 17.25C17.4415 17.25 17.3227 17.218 17.2181 17.1572L4.15556 9.59469C4.05138 9.53425 3.9649 9.44751 3.90479 9.34314C3.84467 9.23877 3.81303 9.12044 3.81303 9C3.81303 8.87956 3.84467 8.76123 3.90479 8.65686C3.9649 8.55249 4.05138 8.46575 4.15556 8.40531L17.2181 0.842813C17.3225 0.782331 17.4411 0.750426 17.5618 0.750308C17.6826 0.75019 17.8012 0.781862 17.9058 0.84214C18.0104 0.902417 18.0973 0.989175 18.1577 1.09369C18.2181 1.1982 18.2499 1.31678 18.25 1.4375V16.5625C18.25 16.7448 18.1776 16.9197 18.0486 17.0486C17.9197 17.1776 17.7448 17.25 17.5625 17.25ZM0.375 0.75H1.75V17.25H0.375V0.75Z" fill="currentColor"/></g></symbol><symbol id="repeat-audio" viewBox="0 0 19 19"><g fill="none"><path d="M17.1449 5.18493C17.9716 6.05095 18.5321 7.1362 18.7599 8.31159C18.9876 9.48699 18.873 10.7031 18.4296 11.8152C17.9862 12.9273 17.2327 13.8887 16.2587 14.5849C15.2847 15.2812 14.1313 15.6831 12.9355 15.7427L12.6246 15.7506L7.47925 15.749L9.273 17.5443C9.40242 17.6736 9.48238 17.8442 9.49894 18.0263C9.5155 18.2085 9.46761 18.3907 9.36363 18.5412L9.273 18.649C9.14373 18.7784 8.97315 18.8584 8.79098 18.8749C8.60882 18.8915 8.42661 18.8436 8.27613 18.7396L8.16831 18.649L5.04019 15.5209C4.91101 15.3914 4.83134 15.2207 4.81507 15.0386C4.79879 14.8564 4.84694 14.6743 4.95113 14.524L5.04019 14.4162L8.16831 11.2881C8.30611 11.1496 8.49075 11.0679 8.68585 11.0588C8.88095 11.0498 9.07236 11.1142 9.22235 11.2393C9.37234 11.3644 9.47004 11.5411 9.49619 11.7346C9.52234 11.9282 9.47505 12.1245 9.36363 12.2849L9.273 12.3943L7.47925 14.1865H12.6246C13.82 14.1866 14.9702 13.73 15.8401 12.9101C16.71 12.0901 17.2337 10.9689 17.3043 9.77556L17.3121 9.50056C17.3139 8.26652 16.8275 7.08186 15.9589 6.20525C15.8164 6.06095 15.7355 5.86686 15.7334 5.66401C15.7314 5.46117 15.8083 5.26548 15.9479 5.11833C16.0876 4.97118 16.279 4.88412 16.4816 4.87555C16.6843 4.86699 16.8824 4.93759 17.0339 5.07243L17.1464 5.18493H17.1449ZM10.7246 0.261495L10.8339 0.350557L13.9605 3.47868L14.0511 3.58806C14.1412 3.71852 14.1894 3.87329 14.1894 4.03181C14.1894 4.19033 14.1412 4.34509 14.0511 4.47556L13.9605 4.58493L10.8339 7.7115L10.7246 7.80212C10.5941 7.89216 10.4393 7.94038 10.2808 7.94038C10.1223 7.94038 9.96753 7.89216 9.83706 7.80212L9.72769 7.7115L9.63863 7.60212C9.54859 7.47166 9.50037 7.31689 9.50037 7.15837C9.50037 6.99985 9.54859 6.84509 9.63863 6.71462L9.72769 6.60525L11.5214 4.81306H6.37456C5.17892 4.81299 4.02845 5.26982 3.15853 6.09006C2.28861 6.91031 1.76502 8.03198 1.69488 9.22556L1.68706 9.50056C1.68706 10.7818 2.20113 11.9412 3.03238 12.7881C3.16401 12.9384 3.23305 13.1334 3.22531 13.333C3.21758 13.5327 3.13365 13.7218 2.99078 13.8614C2.84792 14.0011 2.65697 14.0807 2.4572 14.0839C2.25744 14.0871 2.06403 14.0137 1.91675 13.8787C1.07305 13.0192 0.495661 11.9342 0.25403 10.7543C0.0123997 9.57444 0.116825 8.34986 0.554743 7.22791C0.992662 6.10596 1.74542 5.13444 2.72246 4.43021C3.6995 3.72598 4.85921 3.31905 6.06206 3.25837L6.37456 3.25056L11.5214 3.249L9.72769 1.45681L9.63863 1.34743C9.53572 1.19704 9.48862 1.01541 9.50548 0.833966C9.52234 0.652521 9.6021 0.482678 9.73096 0.353824C9.85981 0.22497 10.0297 0.145213 10.2111 0.128352C10.3925 0.111492 10.5742 0.158589 10.7246 0.261495Z" fill="currentColor"/></g></symbol><symbol id="right" viewBox="0 0 9 14"><g fill="none"><path d="M1 13L7 7L0.999999 1" stroke="currentColor" stroke-width="2"/></g></symbol><symbol id="share-audio" viewBox="0 0 17 15"><g fill="none"><path d="M8.50033 1.125V9.625M8.50033 1.125L5.66699 3.95833M8.50033 1.125L11.3337 3.95833M1.41699 11.0417L1.85687 12.8019C1.93348 13.1084 2.11033 13.3804 2.35931 13.5749C2.60829 13.7693 2.91512 13.875 3.23103 13.875H13.7696C14.0855 13.875 14.3924 13.7693 14.6413 13.5749C14.8903 13.3804 15.0672 13.1084 15.1438 12.8019L15.5837 11.0417" stroke="currentColor" stroke-width="1.16667" stroke-linecap="round" stroke-linejoin="round"/></g></symbol><symbol id="shuffle-audio" viewBox="0 0 22 19"><g fill="none"><path d="M21.2129 14.4121C21.3596 14.5602 21.4419 14.7603 21.4419 14.9688C21.4419 15.1772 21.3596 15.3773 21.2129 15.5254L18.8691 17.8691C18.7198 18.0135 18.5202 18.0942 18.3125 18.0942C18.1048 18.0942 17.9052 18.0135 17.7559 17.8691C17.6092 17.721 17.5269 17.521 17.5269 17.3125C17.5269 17.104 17.6092 16.904 17.7559 16.7559L18.7715 15.75H17.6191C16.4996 15.748 15.3967 15.4795 14.4016 14.9667C13.4064 14.4538 12.5477 13.7114 11.8965 12.8008L7.82422 7.10742C7.31888 6.3997 6.65233 5.82244 5.87968 5.42338C5.10703 5.02432 4.25048 4.81492 3.38086 4.8125H1.125C0.9178 4.8125 0.719086 4.73019 0.572573 4.58368C0.42606 4.43717 0.34375 4.23845 0.34375 4.03125C0.34375 3.82405 0.42606 3.62534 0.572573 3.47882C0.719086 3.33231 0.9178 3.25 1.125 3.25H3.38086C4.50037 3.25197 5.60331 3.52049 6.59844 4.03333C7.59357 4.54618 8.45228 5.28862 9.10351 6.19922L13.1758 11.8926C13.6811 12.6003 14.3477 13.1776 15.1203 13.5766C15.893 13.9757 16.7495 14.1851 17.6191 14.1875H18.7715L17.7559 13.1816C17.6313 13.0298 17.5676 12.8371 17.5772 12.641C17.5869 12.4449 17.6691 12.2593 17.808 12.1205C17.9468 11.9816 18.1324 11.8994 18.3285 11.8897C18.5246 11.8801 18.7173 11.9438 18.8691 12.0684L21.2129 14.4121ZM11.9648 7.44922C12.0487 7.50927 12.1436 7.55212 12.2441 7.5753C12.3446 7.59848 12.4487 7.60153 12.5504 7.58428C12.6521 7.56704 12.7493 7.52982 12.8365 7.4748C12.9238 7.41977 12.9992 7.34801 13.0586 7.26367L13.1758 7.10742C13.6811 6.3997 14.3477 5.82244 15.1203 5.42338C15.893 5.02432 16.7495 4.81492 17.6191 4.8125H18.7715L17.7559 5.81836C17.6092 5.96648 17.5269 6.16653 17.5269 6.375C17.5269 6.58348 17.6092 6.78352 17.7559 6.93164C17.9052 7.07603 18.1048 7.15675 18.3125 7.15675C18.5202 7.15675 18.7198 7.07603 18.8691 6.93164L21.2129 4.58789C21.3596 4.43977 21.4419 4.23973 21.4419 4.03125C21.4419 3.82278 21.3596 3.62273 21.2129 3.47461L18.8691 1.13086C18.7173 1.00628 18.5246 0.942614 18.3285 0.952247C18.1324 0.96188 17.9468 1.04412 17.808 1.18298C17.6691 1.32183 17.5869 1.50737 17.5772 1.70351C17.5676 1.89964 17.6313 2.09235 17.7559 2.24414L18.7715 3.25H17.6191C16.4996 3.25197 15.3967 3.52049 14.4016 4.03333C13.4064 4.54618 12.5477 5.28862 11.8965 6.19922L11.7891 6.35547C11.7285 6.43873 11.685 6.53313 11.6611 6.63326C11.6372 6.73338 11.6332 6.83725 11.6496 6.93889C11.6659 7.04053 11.7022 7.13794 11.7563 7.22552C11.8104 7.3131 11.8813 7.38912 11.9648 7.44922ZM9.03516 11.5508C8.9513 11.4907 8.85639 11.4479 8.7559 11.4247C8.6554 11.4015 8.55131 11.3985 8.44963 11.4157C8.34795 11.433 8.25069 11.4702 8.16346 11.5252C8.07623 11.5802 8.00076 11.652 7.94141 11.7363L7.82422 11.8926C7.31888 12.6003 6.65233 13.1776 5.87968 13.5766C5.10703 13.9757 4.25048 14.1851 3.38086 14.1875H1.125C0.9178 14.1875 0.719086 14.2698 0.572573 14.4163C0.42606 14.5628 0.34375 14.7616 0.34375 14.9688C0.34375 15.176 0.42606 15.3747 0.572573 15.5212C0.719086 15.6677 0.9178 15.75 1.125 15.75H3.38086C4.50037 15.748 5.60331 15.4795 6.59844 14.9667C7.59357 14.4538 8.45228 13.7114 9.10351 12.8008L9.21094 12.6445C9.27148 12.5613 9.31497 12.4669 9.3389 12.3667C9.36284 12.2666 9.36676 12.1628 9.35042 12.0611C9.33409 11.9595 9.29782 11.8621 9.24372 11.7745C9.18962 11.6869 9.11874 11.6109 9.03516 11.5508Z" fill="currentColor"/></g></symbol><symbol id="sun" viewBox="0 0 20 20"><g fill="none"><path d="M13.545 6.45505C12.6455 5.55558 11.3757 4.97357 10 4.97357C8.62433 4.97357 7.35449 5.52912 6.45502 6.45505C5.55555 7.35451 4.97354 8.62435 4.97354 10C4.97354 11.3757 5.55555 12.6455 6.45502 13.545C7.35449 14.4444 8.62433 15.0265 10 15.0265C11.3757 15.0265 12.6455 14.4709 13.545 13.545C14.4444 12.6455 15.0265 11.3757 15.0265 10C15.0265 8.62435 14.4709 7.35451 13.545 6.45505ZM12.5926 12.5926C11.9312 13.254 11.0053 13.6508 10 13.6508C8.9947 13.6508 8.06878 13.254 7.4074 12.5926C6.74603 11.9312 6.3492 11.0053 6.3492 10C6.3492 8.99472 6.74603 8.0688 7.4074 7.40742C8.06878 6.74605 8.9947 6.34923 10 6.34923C11.0053 6.34923 11.9312 6.74605 12.5926 7.40742C13.254 8.0688 13.6508 8.99472 13.6508 10C13.6508 11.0053 13.254 11.9312 12.5926 12.5926Z" fill="white"/><path d="M19.3122 9.3122H17.2751C16.9048 9.3122 16.5873 9.62966 16.5873 10C16.5873 10.3704 16.9048 10.6879 17.2751 10.6879H19.3122C19.6825 10.6879 20 10.3704 20 10C20 9.62966 19.6825 9.3122 19.3122 9.3122Z" fill="white"/><path d="M9.99999 16.5873C9.62962 16.5873 9.31216 16.9048 9.31216 17.2751V19.3122C9.31216 19.6825 9.62962 20 9.99999 20C10.3704 20 10.6878 19.6825 10.6878 19.3122V17.2751C10.6878 16.9048 10.3704 16.5873 9.99999 16.5873Z" fill="white"/><path d="M17.0635 16.1111L15.6085 14.656C15.3704 14.3915 14.9207 14.3915 14.6561 14.656C14.3916 14.9206 14.3916 15.3439 14.6561 15.6084L16.1111 17.0634C16.3757 17.328 16.799 17.328 17.0635 17.0634C17.3281 16.7989 17.3281 16.3756 17.0635 16.1111Z" fill="white"/><path d="M9.99999 0C9.62962 0 9.31216 0.317459 9.31216 0.687829V2.72486C9.31216 3.09523 9.62962 3.41269 9.99999 3.41269C10.3704 3.41269 10.6878 3.09523 10.6878 2.72486V0.687829C10.6878 0.317459 10.3704 0 9.99999 0Z" fill="white"/><path d="M17.0899 2.93653C16.8254 2.67198 16.4021 2.67198 16.1376 2.93653L14.6825 4.39155C14.418 4.6561 14.418 5.07938 14.6825 5.34393C14.9206 5.60848 15.3704 5.60848 15.6349 5.34393L17.0899 3.88891C17.3545 3.62436 17.3545 3.20108 17.0899 2.93653Z" fill="white"/><path d="M2.72487 9.3122H0.687831C0.31746 9.3122 0 9.62966 0 10C0 10.3704 0.291005 10.6879 0.687831 10.6879H2.72487C3.09524 10.6879 3.4127 10.3704 3.4127 10C3.4127 9.62966 3.09524 9.3122 2.72487 9.3122Z" fill="white"/><path d="M5.31746 14.656C5.07937 14.3915 4.62963 14.3915 4.36508 14.656L2.91005 16.1111C2.6455 16.3756 2.6455 16.7989 2.91005 17.0634C3.1746 17.328 3.59788 17.328 3.86243 17.0634L5.31746 15.6084C5.58201 15.3439 5.58201 14.9206 5.31746 14.656Z" fill="white"/><path d="M5.31746 4.39155L3.86243 2.93653C3.59788 2.67198 3.1746 2.67198 2.91005 2.93653C2.6455 3.20108 2.6455 3.62436 2.91005 3.88891L4.36508 5.34393C4.62963 5.60848 5.05291 5.60848 5.31746 5.34393C5.58201 5.07938 5.58201 4.6561 5.31746 4.39155Z" fill="white"/></g></symbol></svg>